<svg xmlns="http://www.w3.org/2000/svg" xmlns:xlink="http://www.w3.org/1999/xlink" id="Layer_1" x="0px" y="0px" viewBox="0 0 334 175" style="enable-background:new 0 0 334 175;" xml:space="preserve">
<style type="text/css">
	.st0{fill-rule:evenodd;clip-rule:evenodd;fill:#FFFFFF;}
	.st1{fill:#1A2238;}
</style>
<path class="st0" d="M167.9,72.3c25.2,0,45.6,20.4,45.6,45.6s-20.4,45.6-45.6,45.6s-45.6-20.4-45.6-45.6S142.7,72.3,167.9,72.3z   M167.9,103.6c7.9,0,14.3,6.4,14.3,14.3s-6.4,14.3-14.3,14.3l0,0c-7.9,0-14.3-6.4-14.3-14.3S160,103.6,167.9,103.6z M271.7,72.3  c25.2,0,45.6,20.4,45.6,45.6s-20.4,45.6-45.6,45.6s-45.6-20.4-45.6-45.6S246.5,72.3,271.7,72.3z M271.7,103.6  c7.9,0,14.3,6.4,14.3,14.3s-6.4,14.3-14.3,14.3s-14.3-6.4-14.3-14.3S263.8,103.6,271.7,103.6z M63.2,70.6c-2.1,0-4.2,0.1-6.3,0.4  v33.1c1.9-0.9,4.1-1.5,6.3-1.5c7.9,0,14.3,6.4,14.3,14.3s-6.4,14.3-14.3,14.3s-14.3-6.4-14.3-14.3V19.3c0-4.3-3.5-7.7-7.8-7.8H24.5  c-4.3,0-7.7,3.5-7.8,7.8V117c0,25.6,20.8,46.4,46.4,46.4s46.4-20.8,46.4-46.4S88.8,70.6,63.2,70.6L63.2,70.6z"/>
<path class="st1" d="M198.9,19.5c2.6,0,4.9,0.5,6.6,1.6c1.8,1.1,3.3,2.6,4.6,4.6c0.4,0.6,0.5,1.1,0.5,1.6c0,0.7-0.3,1.2-0.9,1.6  c-0.3,0.2-0.7,0.3-1.2,0.3s-0.9-0.1-1.3-0.3c-0.4-0.2-0.7-0.5-0.9-0.9c-0.8-1.4-1.9-2.4-3.1-3.2c-1.3-0.7-2.8-1.1-4.7-1.1  c-2.3,0-4.2,0.4-5.6,1.4c-1.4,0.9-2.2,2.2-2.2,3.9c0,1.6,0.6,2.9,1.9,4c1.3,1.1,3.6,1.8,6.9,2.1c3.7,0.4,6.5,1.5,8.5,3.3  s3,4.3,3,7.3c0,2.2-0.6,4.1-1.8,5.7c-1.2,1.6-2.7,2.7-4.7,3.5s-4.1,1.2-6.3,1.2c-3,0-5.7-0.7-8.1-2c-2.4-1.4-4.1-3.1-5-5.3  c-0.1-0.3-0.2-0.6-0.2-0.9c0-0.5,0.2-0.9,0.5-1.2c0.3-0.4,0.8-0.6,1.4-0.7c0.1,0,0.3,0,0.5,0c0.5,0,0.9,0.1,1.4,0.4  c0.4,0.3,0.8,0.7,1,1.2c0.5,1.2,1.6,2.2,3.3,3s3.4,1.3,5.4,1.3c2.3,0,4.2-0.5,5.8-1.6s2.4-2.5,2.4-4.3c0-1.7-0.7-3.2-2-4.4  c-1.4-1.3-3.4-2-6.1-2.3c-3.8-0.4-6.8-1.5-8.9-3.3c-2.2-1.8-3.3-4.2-3.3-6.9c0-2,0.5-3.6,1.7-5.1c1.1-1.4,2.6-2.5,4.6-3.3  S196.6,19.6,198.9,19.5L198.9,19.5z M237.9,52.4c0.3,0.4,0.5,0.8,0.5,1.4c0,0.7-0.3,1.3-0.8,1.7c-0.4,0.3-0.9,0.5-1.5,0.5  c-0.7,0-1.3-0.3-1.6-0.8l-8.7-10.8l-2.3,2v7c0,0.7-0.2,1.2-0.6,1.6c-0.4,0.4-0.9,0.6-1.6,0.6c-0.7,0-1.2-0.2-1.6-0.6  c-0.4-0.4-0.6-0.9-0.6-1.6V22.2c0-0.7,0.2-1.2,0.6-1.6c0.4-0.4,0.9-0.6,1.6-0.6c0.7,0,1.2,0.2,1.6,0.6s0.6,0.9,0.6,1.6v18.6  l11.1-9.9c0.4-0.4,0.8-0.6,1.4-0.6c0.6,0,1.2,0.3,1.6,0.7c0.4,0.4,0.6,0.8,0.6,1.4c0,0.6-0.3,1.2-0.7,1.6l-8.4,7.5L237.9,52.4  L237.9,52.4z M246.5,33c0-0.7,0.2-1.3,0.6-1.7c0.4-0.4,1-0.6,1.7-0.6s1.3,0.2,1.7,0.6s0.6,1,0.6,1.7v20.4c0,0.7-0.2,1.2-0.6,1.7  s-1,0.6-1.7,0.6s-1.2-0.2-1.7-0.6s-0.6-1-0.6-1.7V33z M248.8,20.5c0.8,0,1.6,0.3,2.1,0.9c0.6,0.6,0.9,1.3,0.9,2.1  c0,0.8-0.3,1.6-0.9,2.1c-0.6,0.6-1.3,0.9-2.1,0.9s-1.6-0.3-2.1-0.9c-0.6-0.6-0.9-1.3-0.9-2.1c0-0.8,0.3-1.6,0.9-2.1  C247.3,20.8,248,20.5,248.8,20.5z M260,22.2c0-0.7,0.2-1.2,0.6-1.6s1-0.6,1.6-0.6s1.2,0.2,1.6,0.6s0.6,1,0.6,1.6v25  c0,1.1,0.2,2.1,0.6,2.8s1,1.1,1.6,1.1h1.1c0.6,0,1.1,0.2,1.5,0.6c0.4,0.4,0.6,1,0.6,1.6s-0.3,1.2-0.8,1.6c-0.5,0.4-1.3,0.6-2.2,0.6  h-0.1c-1.3,0-2.5-0.4-3.5-1.1c-1.1-0.7-1.9-1.7-2.4-3S260,48.7,260,47V22.2L260,22.2z M274.7,22.2c0-0.7,0.2-1.2,0.6-1.6  s1-0.6,1.6-0.6s1.2,0.2,1.6,0.6s0.6,1,0.6,1.6v25c0,1.1,0.2,2.1,0.6,2.8s1,1.1,1.6,1.1h1.1c0.6,0,1.1,0.2,1.5,0.6  c0.4,0.4,0.6,1,0.6,1.6s-0.3,1.2-0.8,1.6c-0.5,0.4-1.3,0.6-2.2,0.6h-0.1c-1.3,0-2.5-0.4-3.5-1.1c-1.1-0.7-1.9-1.7-2.4-3  c-0.6-1.3-0.8-2.7-0.8-4.4L274.7,22.2L274.7,22.2z M299.1,30.5c2,0,3.8,0.3,5.3,1c1.6,0.6,2.8,1.5,3.7,2.7c0.4,0.5,0.6,1,0.6,1.5  s-0.3,1-0.8,1.4c-0.3,0.3-0.8,0.4-1.3,0.4c-0.8,0-1.5-0.3-2.2-0.8c-0.8-0.7-1.6-1.2-2.4-1.5s-1.9-0.4-3.1-0.4  c-1.4,0-2.5,0.2-3.5,0.7c-0.9,0.5-1.4,1.1-1.4,2c0,0.6,0.1,1.1,0.5,1.5c0.3,0.4,0.9,0.8,1.7,1.1c0.8,0.4,2.1,0.7,3.7,1.1  c3.3,0.7,5.7,1.6,7.1,2.8s2.1,2.7,2.1,4.6c0,1.4-0.4,2.7-1.1,3.8s-1.9,2-3.4,2.7s-3.3,1-5.3,1c-2.1,0-4-0.3-5.8-1  c-1.8-0.6-3.3-1.5-4.3-2.5c-0.4-0.4-0.6-0.8-0.6-1.4c0-0.7,0.3-1.4,0.9-1.8c0.6-0.4,1.1-0.6,1.6-0.6c0.6,0,1.2,0.3,1.7,0.8  c0.6,0.6,1.5,1.2,2.6,1.7s2.4,0.7,3.7,0.7c1.7,0,3.1-0.3,4.1-0.8c1-0.6,1.4-1.4,1.4-2.3c0-0.9-0.5-1.7-1.4-2.4  c-0.9-0.6-2.5-1.2-4.8-1.6c-5.8-1.1-8.8-3.5-8.8-7.2c0-1.5,0.4-2.7,1.3-3.8s2-1.8,3.5-2.3c1.4-0.5,3-0.8,4.6-0.8L299.1,30.5z"/>
</svg>