<svg xmlns="http://www.w3.org/2000/svg" width="334" height="175" viewBox="0 0 158.23 82.85" shape-rendering="geometricPrecision" image-rendering="optimizeQuality" fill-rule="evenodd"><path d="M79.53 34.24c11.93 0 21.6 9.67 21.6 21.6s-9.67 21.6-21.6 21.6-21.6-9.67-21.6-21.6 9.67-21.6 21.6-21.6zm0 14.8a6.79 6.79 0 0 1 0 13.58 6.79 6.79 0 1 1 0-13.58zm49.2-14.8c11.93 0 21.6 9.67 21.6 21.6s-9.67 21.6-21.6 21.6-21.6-9.67-21.6-21.6 9.67-21.6 21.6-21.6zm0 14.8a6.79 6.79 0 0 1 0 13.58 6.79 6.79 0 0 1 0-13.58zm-98.8-15.62a22.75 22.75 0 0 0-2.99.2v15.7c.9-.44 1.92-.7 3-.7a6.79 6.79 0 1 1-6.79 6.79V9.1a3.7 3.7 0 0 0-3.68-3.68H11.6A3.7 3.7 0 0 0 7.92 9.1v46.32c0 12.15 9.85 22 22 22s22-9.85 22-22-9.85-22-22-22z"/><path d="M94.24 9.23c1.24 0 2.3.25 3.14.76s1.58 1.23 2.17 2.17c.17.28.26.53.26.78 0 .32-.14.58-.43.78-.16.1-.35.15-.56.15-.22 0-.42-.05-.6-.16s-.33-.26-.43-.44c-.4-.65-.88-1.15-1.46-1.5-.6-.34-1.33-.5-2.22-.5-1.1 0-2 .2-2.67.64s-1.02 1.04-1.02 1.85c0 .75.3 1.38.9 1.9s1.7.84 3.25 1c1.73.17 3.08.7 4.03 1.57s1.43 2.03 1.43 3.46c0 1.04-.28 1.93-.85 2.68-.56.74-1.3 1.3-2.24 1.67s-1.93.55-3 .55c-1.4 0-2.68-.32-3.83-.95-1.15-.64-1.94-1.47-2.37-2.5a1.23 1.23 0 0 1-.11-.43.78.78 0 0 1 .24-.57c.16-.17.38-.28.65-.34.04-.01.12-.02.22-.02.23 0 .45.07.66.2s.36.32.47.55c.26.56.77 1.04 1.54 1.43s1.6.6 2.54.6c1.08 0 2-.25 2.75-.75s1.13-1.18 1.13-2.05c0-.82-.32-1.53-.95-2.1-.64-.6-1.6-.94-2.9-1.07-1.8-.17-3.2-.7-4.23-1.57s-1.54-1.97-1.54-3.28c0-.93.26-1.72.8-2.4.53-.67 1.25-1.2 2.17-1.54s1.95-.53 3.1-.53zM112.7 24.8c.16.17.24.4.24.65a.99.99 0 0 1-.39.8 1.12 1.12 0 0 1-.69.26.94.94 0 0 1-.78-.39l-4.12-5.1-1.08.95v3.32c0 .32-.1.57-.3.77-.2.2-.45.3-.77.3s-.57-.1-.77-.3c-.2-.2-.3-.45-.3-.77v-14.8c0-.32.1-.57.3-.77.2-.2.45-.3.77-.3s.57.1.77.3c.2.2.3.45.3.77v8.82l5.27-4.7c.2-.2.4-.28.67-.28.3 0 .55.12.74.35.2.2.28.4.28.67 0 .3-.12.55-.35.74l-4 3.56 4.2 5.16zm4.08-9.2c0-.33.1-.6.3-.8s.47-.3.8-.3c.33 0 .6.1.8.3s.3.47.3.8v9.65c0 .32-.1.58-.3.8s-.47.3-.8.3c-.32 0-.58-.1-.8-.3s-.3-.47-.3-.8V15.6zm1.1-5.9a1.38 1.38 0 0 1 1.01.42 1.38 1.38 0 0 1 .42 1.01 1.38 1.38 0 0 1-.42 1.01 1.38 1.38 0 0 1-1.01.42 1.38 1.38 0 0 1-1.01-.42 1.38 1.38 0 0 1-.42-1.01 1.38 1.38 0 0 1 .42-1.01 1.38 1.38 0 0 1 1.01-.42zm5.27.8c0-.32.1-.58.3-.78s.46-.3.78-.3.58.1.78.3.3.46.3.78v11.84c0 .53.1.98.3 1.32.2.35.46.52.78.52h.54c.3 0 .52.1.7.3s.27.46.27.78-.14.58-.4.78-.63.3-1.06.3h-.04a2.92 2.92 0 0 1-1.68-.51c-.5-.34-.9-.82-1.16-1.43s-.4-1.3-.4-2.07V10.5zm6.98 0c0-.32.1-.58.3-.78s.46-.3.78-.3.58.1.78.3.3.46.3.78v11.84c0 .53.1.98.3 1.32.2.35.46.52.78.52h.54c.3 0 .52.1.7.3s.27.46.27.78-.14.58-.4.78-.63.3-1.06.3h-.04a2.92 2.92 0 0 1-1.68-.51c-.5-.34-.9-.82-1.16-1.43-.28-.6-.4-1.3-.4-2.07V10.5zm11.58 3.9c.94 0 1.78.15 2.53.46.74.3 1.33.72 1.77 1.26.2.23.28.46.28.7 0 .25-.12.47-.37.67-.16.12-.36.17-.6.17-.38 0-.7-.14-1.02-.4-.36-.33-.74-.57-1.15-.7-.4-.14-.9-.2-1.47-.2-.67 0-1.2.1-1.64.34-.43.22-.64.54-.64.94 0 .3.07.53.22.73.14.2.42.38.82.54.4.17 1 .33 1.76.5 1.58.32 2.7.76 3.35 1.32s1 1.3 1 2.2c0 .67-.18 1.27-.54 1.8s-.9.97-1.6 1.28-1.54.47-2.53.47c-.98 0-1.9-.15-2.77-.46-.87-.3-1.55-.7-2.04-1.2-.2-.2-.28-.4-.28-.67a1.01 1.01 0 0 1 .43-.85c.27-.2.53-.3.76-.3.3 0 .56.13.82.4.27.3.7.57 1.24.8s1.13.34 1.76.34c.82 0 1.46-.14 1.92-.4.46-.28.68-.64.68-1.1 0-.45-.22-.82-.67-1.12s-1.2-.55-2.28-.75c-2.77-.53-4.16-1.68-4.16-3.42 0-.7.2-1.3.63-1.8s.97-.86 1.65-1.1 1.4-.37 2.17-.37z" fill-rule="nonzero"/></svg>